<svg height="240" width="240" xmlns="http://www.w3.org/2000/svg">
<rect width="100%" height="100%" x="0" y="0" style="fill:white;stroke:white;stroke-width:0"/>
<g style="fill:white;stroke:black;stroke-width:1">
<rect width="125" height="125" x="60" y="60"/>
<polygon points="10,95 10,85 30,85 40,95 60,95 40,95 30,105 10,105 10,95"/>
<text x="65" y="85" dominant-baseline="hanging" text-anchor="start" font-size="20" style="fill:black;stroke:black;stroke-width:0">tx_valid</text>
<polygon points="10,145 20,135 40,135 40,145 60,145 40,145 40,155 20,155 10,145"/>
<text x="65" y="135" dominant-baseline="hanging" text-anchor="start" font-size="20" style="fill:black;stroke:black;stroke-width:0">tx_ready</text>
<polygon points="185,95 205,95 205,85 225,85 235,95 225,105 205,105 205,95 185,95"/>
<text x="180" y="85" dominant-baseline="hanging" text-anchor="end" font-size="20" style="fill:black;stroke:black;stroke-width:0">rx_valid</text>
<polygon points="185,145 205,145 215,135 235,135 235,145 235,155 215,155 205,145 185,145"/>
<text x="180" y="135" dominant-baseline="hanging" text-anchor="end" font-size="20" style="fill:black;stroke:black;stroke-width:0">rx_ready</text>
</g>
</svg>
