<svg height="340" width="340" xmlns="http://www.w3.org/2000/svg">
<rect width="100%" height="100%" x="0" y="0" style="fill:white;stroke:white;stroke-width:0"/>
<g style="fill:white;stroke:black;stroke-width:1">
<rect width="225" height="225" x="60" y="60"/>
<polygon points="10,95 10,85 30,85 40,95 60,95 40,95 30,105 10,105 10,95"/>
<text x="65" y="85" dominant-baseline="hanging" text-anchor="start" font-size="20" style="fill:black;stroke:black;stroke-width:0">arst_ni</text>
<polygon points="10,145 10,135 30,135 40,145 60,145 40,145 30,155 10,155 10,145"/>
<text x="65" y="135" dominant-baseline="hanging" text-anchor="start" font-size="20" style="fill:black;stroke:black;stroke-width:0">en_i</text>
<polygon points="10,245 10,235 30,235 40,245 60,245 40,245 30,255 10,255 10,245"/>
<text x="65" y="235" dominant-baseline="hanging" text-anchor="start" font-size="20" style="fill:black;stroke:black;stroke-width:0">d_i</text>
<polygon points="285,245 305,245 305,235 325,235 335,245 325,255 305,255 305,245 285,245"/>
<text x="280" y="235" dominant-baseline="hanging" text-anchor="end" font-size="20" style="fill:black;stroke:black;stroke-width:0">q_o</text>
<text x="170" y="300" dominant-baseline="hanging" text-anchor="middle" font-size="30" style="fill:black;stroke:black;stroke-width:0">latch</text>
</g>
</svg>
