<svg height="490" width="490" xmlns="http://www.w3.org/2000/svg">
<rect width="100%" height="100%" x="0" y="0" style="fill:white;stroke:white;stroke-width:0"/>
<g style="fill:white;stroke:black;stroke-width:1">
<rect width="375" height="375" x="60" y="60"/>
<polygon points="10,95 10,85 30,85 40,95 60,95 40,95 30,105 10,105 10,95"/>
<text x="65" y="85" dominant-baseline="hanging" text-anchor="start" font-size="20" style="fill:black;stroke:black;stroke-width:0">clk_i</text>
<polygon points="10,145 10,135 30,135 40,145 60,145 40,145 30,155 10,155 10,145"/>
<text x="65" y="135" dominant-baseline="hanging" text-anchor="start" font-size="20" style="fill:black;stroke:black;stroke-width:0">arst_ni</text>
<polygon points="10,245 10,235 30,235 40,245 60,245 40,245 30,255 10,255 10,245"/>
<text x="65" y="235" dominant-baseline="hanging" text-anchor="start" font-size="20" style="fill:black;stroke:black;stroke-width:0">elem_in_i</text>
<polygon points="10,295 10,285 30,285 40,295 60,295 40,295 30,305 10,305 10,295"/>
<text x="65" y="285" dominant-baseline="hanging" text-anchor="start" font-size="20" style="fill:black;stroke:black;stroke-width:0">elem_in_valid_i</text>
<polygon points="10,345 20,335 40,335 40,345 60,345 40,345 40,355 20,355 10,345"/>
<text x="65" y="335" dominant-baseline="hanging" text-anchor="start" font-size="20" style="fill:black;stroke:black;stroke-width:0">elem_in_ready_o</text>
<polygon points="435,95 455,95 455,85 475,85 485,95 475,105 455,105 455,95 435,95"/>
<text x="430" y="85" dominant-baseline="hanging" text-anchor="end" font-size="20" style="fill:black;stroke:black;stroke-width:0">elem_out_main_o</text>
<polygon points="435,145 455,145 455,135 475,135 485,145 475,155 455,155 455,145 435,145"/>
<text x="430" y="135" dominant-baseline="hanging" text-anchor="end" font-size="20" style="fill:black;stroke:black;stroke-width:0">elem_out_main_valid_o</text>
<polygon points="435,195 455,195 465,185 485,185 485,195 485,205 465,205 455,195 435,195"/>
<text x="430" y="185" dominant-baseline="hanging" text-anchor="end" font-size="20" style="fill:black;stroke:black;stroke-width:0">elem_out_main_ready_i</text>
<polygon points="435,295 455,295 455,285 475,285 485,295 475,305 455,305 455,295 435,295"/>
<text x="430" y="285" dominant-baseline="hanging" text-anchor="end" font-size="20" style="fill:black;stroke:black;stroke-width:0">elem_out_scnd_o</text>
<polygon points="435,345 455,345 455,335 475,335 485,345 475,355 455,355 455,345 435,345"/>
<text x="430" y="335" dominant-baseline="hanging" text-anchor="end" font-size="20" style="fill:black;stroke:black;stroke-width:0">elem_out_scnd_valid_o</text>
<polygon points="435,395 455,395 465,385 485,385 485,395 485,405 465,405 455,395 435,395"/>
<text x="430" y="385" dominant-baseline="hanging" text-anchor="end" font-size="20" style="fill:black;stroke:black;stroke-width:0">elem_out_scnd_ready_i</text>
<text x="245" y="450" dominant-baseline="hanging" text-anchor="middle" font-size="30" style="fill:black;stroke:black;stroke-width:0">pipeline_branch</text>
</g>
</svg>
