<svg height="590" width="590" xmlns="http://www.w3.org/2000/svg">
<rect width="100%" height="100%" x="0" y="0" style="fill:white;stroke:white;stroke-width:0"/>
<g style="fill:white;stroke:black;stroke-width:1">
<rect width="475" height="475" x="60" y="60"/>
<polygon points="10,95 10,85 30,85 40,95 60,95 40,95 30,105 10,105 10,95"/>
<text x="65" y="85" dominant-baseline="hanging" text-anchor="start" font-size="20" style="fill:black;stroke:black;stroke-width:0">bypass_i</text>
<polygon points="10,195 10,185 30,185 40,195 60,195 40,195 30,205 10,205 10,195"/>
<text x="65" y="185" dominant-baseline="hanging" text-anchor="start" font-size="20" style="fill:black;stroke:black;stroke-width:0">fref_i</text>
<polygon points="10,245 10,235 30,235 40,245 60,245 40,245 30,255 10,255 10,245"/>
<text x="65" y="235" dominant-baseline="hanging" text-anchor="start" font-size="20" style="fill:black;stroke:black;stroke-width:0">refdiv_i</text>
<polygon points="10,345 10,335 30,335 40,345 60,345 40,345 30,355 10,355 10,345"/>
<text x="65" y="335" dominant-baseline="hanging" text-anchor="start" font-size="20" style="fill:black;stroke:black;stroke-width:0">fbdiv_i</text>
<polygon points="10,395 20,385 40,385 40,395 60,395 40,395 40,405 20,405 10,395"/>
<text x="65" y="385" dominant-baseline="hanging" text-anchor="start" font-size="20" style="fill:black;stroke:black;stroke-width:0">fvco_o</text>
<polygon points="10,495 10,485 30,485 40,495 60,495 40,495 30,505 10,505 10,495"/>
<text x="65" y="485" dominant-baseline="hanging" text-anchor="start" font-size="20" style="fill:black;stroke:black;stroke-width:0">fdiv_i</text>
<polygon points="535,345 555,345 555,335 575,335 585,345 575,355 555,355 555,345 535,345"/>
<text x="530" y="335" dominant-baseline="hanging" text-anchor="end" font-size="20" style="fill:black;stroke:black;stroke-width:0">lock_o</text>
<polygon points="535,445 555,445 555,435 575,435 585,445 575,455 555,455 555,445 535,445"/>
<text x="530" y="435" dominant-baseline="hanging" text-anchor="end" font-size="20" style="fill:black;stroke:black;stroke-width:0">fout_o</text>
</g>
</svg>
