<svg height="840" width="840" xmlns="http://www.w3.org/2000/svg">
<rect width="100%" height="100%" x="0" y="0" style="fill:white;stroke:white;stroke-width:0"/>
<g style="fill:white;stroke:black;stroke-width:1">
<rect width="725" height="725" x="60" y="60"/>
<polygon points="10,95 10,85 30,85 40,95 60,95 40,95 30,105 10,105 10,95"/>
<text x="65" y="85" dominant-baseline="hanging" text-anchor="start" font-size="20" style="fill:black;stroke:black;stroke-width:0">clk_i</text>
<polygon points="10,145 10,135 30,135 40,145 60,145 40,145 30,155 10,155 10,145"/>
<text x="65" y="135" dominant-baseline="hanging" text-anchor="start" font-size="20" style="fill:black;stroke:black;stroke-width:0">arst_ni</text>
<polygon points="10,245 10,235 30,235 40,245 60,245 40,245 30,255 10,255 10,245"/>
<text x="65" y="235" dominant-baseline="hanging" text-anchor="start" font-size="20" style="fill:black;stroke:black;stroke-width:0">data_in_num_lanes_i</text>
<polygon points="10,295 10,285 30,285 40,295 60,295 40,295 30,305 10,305 10,295"/>
<text x="65" y="285" dominant-baseline="hanging" text-anchor="start" font-size="20" style="fill:black;stroke:black;stroke-width:0">data_in_start_lane_i</text>
<polygon points="10,345 20,335 40,335 40,345 60,345 40,345 40,355 20,355 10,345"/>
<text x="65" y="335" dominant-baseline="hanging" text-anchor="start" font-size="20" style="fill:black;stroke:black;stroke-width:0">data_in_req_valid_o</text>
<polygon points="10,445 10,435 30,435 40,445 60,445 40,445 30,455 10,455 10,445"/>
<text x="65" y="435" dominant-baseline="hanging" text-anchor="start" font-size="20" style="fill:black;stroke:black;stroke-width:0">data_in_i</text>
<polygon points="10,495 10,485 30,485 40,495 60,495 40,495 30,505 10,505 10,495"/>
<text x="65" y="485" dominant-baseline="hanging" text-anchor="start" font-size="20" style="fill:black;stroke:black;stroke-width:0">data_in_valid_i</text>
<polygon points="10,545 20,535 40,535 40,545 60,545 40,545 40,555 20,555 10,545"/>
<text x="65" y="535" dominant-baseline="hanging" text-anchor="start" font-size="20" style="fill:black;stroke:black;stroke-width:0">data_in_ready_o</text>
<polygon points="10,645 10,635 30,635 40,645 60,645 40,645 30,655 10,655 10,645"/>
<text x="65" y="635" dominant-baseline="hanging" text-anchor="start" font-size="20" style="fill:black;stroke:black;stroke-width:0">data_out_num_lanes_i</text>
<polygon points="10,695 10,685 30,685 40,695 60,695 40,695 30,705 10,705 10,695"/>
<text x="65" y="685" dominant-baseline="hanging" text-anchor="start" font-size="20" style="fill:black;stroke:black;stroke-width:0">data_out_start_lane_i</text>
<polygon points="10,745 20,735 40,735 40,745 60,745 40,745 40,755 20,755 10,745"/>
<text x="65" y="735" dominant-baseline="hanging" text-anchor="start" font-size="20" style="fill:black;stroke:black;stroke-width:0">data_out_req_valid_o</text>
<polygon points="785,495 805,495 805,485 825,485 835,495 825,505 805,505 805,495 785,495"/>
<text x="780" y="485" dominant-baseline="hanging" text-anchor="end" font-size="20" style="fill:black;stroke:black;stroke-width:0">data_out_o</text>
<polygon points="785,545 805,545 805,535 825,535 835,545 825,555 805,555 805,545 785,545"/>
<text x="780" y="535" dominant-baseline="hanging" text-anchor="end" font-size="20" style="fill:black;stroke:black;stroke-width:0">data_out_valid_o</text>
<polygon points="785,595 805,595 815,585 835,585 835,595 835,605 815,605 805,595 785,595"/>
<text x="780" y="585" dominant-baseline="hanging" text-anchor="end" font-size="20" style="fill:black;stroke:black;stroke-width:0">data_out_ready_i</text>
<polygon points="785,695 805,695 805,685 825,685 835,695 825,705 805,705 805,695 785,695"/>
<text x="780" y="685" dominant-baseline="hanging" text-anchor="end" font-size="20" style="fill:black;stroke:black;stroke-width:0">space_available_o</text>
<polygon points="785,745 805,745 805,735 825,735 835,745 825,755 805,755 805,745 785,745"/>
<text x="780" y="735" dominant-baseline="hanging" text-anchor="end" font-size="20" style="fill:black;stroke:black;stroke-width:0">elem_available_o</text>
<text x="420" y="800" dominant-baseline="hanging" text-anchor="middle" font-size="30" style="fill:black;stroke:black;stroke-width:0">var_fifo</text>
</g>
</svg>
